<?xml version="1.0" encoding="UTF-8" standalone="no"?>
<!-- Created with Inkscape (http://www.inkscape.org/) -->

<svg
   xmlns:dc="http://purl.org/dc/elements/1.1/"
   xmlns:cc="http://creativecommons.org/ns#"
   xmlns:rdf="http://www.w3.org/1999/02/22-rdf-syntax-ns#"
   xmlns:svg="http://www.w3.org/2000/svg"
   xmlns="http://www.w3.org/2000/svg"
   xmlns:sodipodi="http://sodipodi.sourceforge.net/DTD/sodipodi-0.dtd"
   xmlns:inkscape="http://www.inkscape.org/namespaces/inkscape"
   version="1.1"
   id="svg869"
   width="1600"
   height="1690"
   viewBox="0 0 1600 1690"
   sodipodi:docname="Icono escuchar corazon.svg"
   inkscape:version="0.92.4 (5da689c313, 2019-01-14)">
  <metadata
     id="metadata875">
    <rdf:RDF>
      <cc:Work
         rdf:about="">
        <dc:format>image/svg+xml</dc:format>
        <dc:type
           rdf:resource="http://purl.org/dc/dcmitype/StillImage" />
        <dc:title></dc:title>
      </cc:Work>
    </rdf:RDF>
  </metadata>
  <defs
     id="defs873" />
  <sodipodi:namedview
     pagecolor="#ffffff"
     bordercolor="#666666"
     borderopacity="1"
     objecttolerance="10"
     gridtolerance="10"
     guidetolerance="10"
     inkscape:pageopacity="0"
     inkscape:pageshadow="2"
     inkscape:window-width="1366"
     inkscape:window-height="708"
     id="namedview871"
     showgrid="false"
     inkscape:snap-bbox="true"
     inkscape:snap-global="false"
     inkscape:zoom="0.22217379"
     inkscape:cx="357.94978"
     inkscape:cy="1152.769"
     inkscape:window-x="0"
     inkscape:window-y="0"
     inkscape:window-maximized="1"
     inkscape:current-layer="svg869" />
  <g
     id="g8053"
     transform="matrix(0.72837486,0,0,0.70521349,12.811683,212.76437)">
    <g
       id="g8057"
       transform="matrix(2.0018081,0,0,2.0561683,-413.9854,-776.41068)">
      <path
         style="fill:none;stroke:#ff0000;stroke-width:75.59055328;stroke-linecap:round;stroke-linejoin:round;stroke-miterlimit:4;stroke-dasharray:none;stroke-opacity:1"
         d="m 476.50138,676.62012 c 0,0 -74.32513,-91.21073 -132.84519,-51.58194 -182.53012,123.60626 132.32255,311.0475 132.32255,311.0475"
         id="path4319"
         inkscape:connector-curvature="0"
         sodipodi:nodetypes="csc" />
      <path
         style="fill:none;stroke:#ff0000;stroke-width:75.59055328;stroke-linecap:butt;stroke-linejoin:miter;stroke-miterlimit:4;stroke-dasharray:none;stroke-opacity:1"
         d="m 476.53122,676.63424 c 0,0 72.77634,-99.07097 143.87442,-44.82527 183.61078,140.08952 -143.31147,304.26355 -143.31147,304.26355"
         id="path4319-3"
         inkscape:connector-curvature="0"
         sodipodi:nodetypes="csc" />
    </g>
  </g>
  <path
     style="fill:none;stroke:#4d4d4d;stroke-width:75.59055118;stroke-linecap:round;stroke-linejoin:round;stroke-opacity:1;stroke-miterlimit:4;stroke-dasharray:none"
     d="m 1099.6139,1094.0443 33.4181,32.6224 51.7185,27.0527 72.4058,1.5913 48.5358,-46.9444 13.5264,-49.3315 -15.9134,-73.20147 -66.8362,-43.76177 -94.6845,-14.32203 -73.9972,4.77401 -127.30697,-47.74011 -67.63183,-85.13654 -42.17043,-104.23258 -3.97835,-122.53296 40.5791,-85.9322 81.95386,-89.11488 131.28532,-38.19209 92.2975,15.11771 78.7712,35.80508 62.8578,59.67514 31.8268,47.74011 17.5047,46.14878 10.3437,46.94445"
     id="path1219"
     inkscape:connector-curvature="0" />
  <path
     style="fill:none;stroke:#4d4d4d;stroke-width:75.59055118;stroke-linecap:round;stroke-linejoin:round;stroke-opacity:1;stroke-miterlimit:4;stroke-dasharray:none;"
     d="M 1505.5782,547.87607 1439.1887,386.96599 1318.7874,267.69 l -122.6517,-56.26227 -154.1586,-11.25245 -105.77305,32.63211 -72.01569,39.38359 -58.51276,47.2603 -43.88456,57.38751 -39.38359,76.51667 -15.75343,74.26619 -13.50294,123.77698 25.88064,141.7809 42.75932,103.52256 76.51668,78.76717 52.88652,78.76714 27.00589,103.5226 9.00196,33.7574 14.62819,50.636 41.63407,61.8885 76.51665,83.2681 115.9003,29.2564 72.0157,5.6262 124.9022,-60.7632 65.2642,-75.3914 52.8866,-87.7692 12.3777,-47.2603 -1.1253,-30.3816"
     id="path881"
     inkscape:connector-curvature="0" />
  <path
     style="fill:none;stroke:#4d4d4d;stroke-width:75.59055328;stroke-linecap:round;stroke-linejoin:round;stroke-opacity:1;stroke-miterlimit:4;stroke-dasharray:none;paint-order:markers fill stroke"
     d="m 1002.0309,868.57096 21.3797,-56.82488 64.1389,-51.76128 47.2603,-19.12917 55.1371,-18.56655"
     id="path1221"
     inkscape:connector-curvature="0" />
  <path
     style="opacity:1;fill:#ff0000;fill-opacity:1;stroke:#ff0000;stroke-width:12.47244072;stroke-linecap:round;stroke-linejoin:round;stroke-miterlimit:4;stroke-dasharray:none;stroke-dashoffset:0;stroke-opacity:0.89655175;paint-order:markers fill stroke"
     d="M 360.20027,922.49629 C 253.27774,841.37574 186.9125,757.00324 186.9125,702.18936 c 0,-22.54637 14.24581,-47.61289 39.22898,-69.0262 14.85406,-12.73155 25.72305,-18.45483 35.03721,-18.44954 19.04391,0.0108 50.61345,19.75618 87.12513,54.49295 49.06367,46.67858 70.80401,45.77644 119.58613,-4.96237 28.56962,-29.71558 61.75095,-49.59637 82.77706,-49.59637 26.59308,0 76.57339,48.37242 86.45791,83.67654 6.63706,23.70521 1.94555,45.3105 -17.01528,78.35877 -15.63359,27.24895 -67.77238,80.83276 -109.12651,112.15094 -33.45156,25.33343 -98.22903,67.92428 -103.19381,67.8494 -1.41858,-0.0214 -22.83366,-15.40563 -47.58905,-34.18719 z"
     id="path8061"
     inkscape:connector-curvature="0" />
</svg>
