<?xml version="1.0" encoding="UTF-8" standalone="no"?>
<!-- Created with Inkscape (http://www.inkscape.org/) -->

<svg
   version="1.1"
   id="svg1049"
   width="322.88388"
   height="237.67056"
   viewBox="0 0 322.88388 237.67056"
   sodipodi:docname="Step 8. Combine rescue breathing with chest compression.svg"
   xml:space="preserve"
   inkscape:version="1.2.2 (732a01da63, 2022-12-09)"
   inkscape:export-filename="Step 8. Combine rescue breathing with chest compression.png"
   inkscape:export-xdpi="96"
   inkscape:export-ydpi="96"
   xmlns:inkscape="http://www.inkscape.org/namespaces/inkscape"
   xmlns:sodipodi="http://sodipodi.sourceforge.net/DTD/sodipodi-0.dtd"
   xmlns="http://www.w3.org/2000/svg"
   xmlns:svg="http://www.w3.org/2000/svg"><defs
     id="defs1053" /><sodipodi:namedview
     id="namedview1051"
     pagecolor="#ffffff"
     bordercolor="#000000"
     borderopacity="0.25"
     inkscape:showpageshadow="2"
     inkscape:pageopacity="0.0"
     inkscape:pagecheckerboard="0"
     inkscape:deskcolor="#d1d1d1"
     showgrid="false"
     inkscape:zoom="1.0177289"
     inkscape:cx="260.38369"
     inkscape:cy="115.94443"
     inkscape:window-width="1366"
     inkscape:window-height="745"
     inkscape:window-x="-8"
     inkscape:window-y="-8"
     inkscape:window-maximized="1"
     inkscape:current-layer="g1055" /><g
     inkscape:groupmode="layer"
     inkscape:label="Image"
     id="g1055"
     transform="translate(-295.33503,-125.32296)"><path
       style="fill:#f4886b;fill-opacity:1;stroke:#f4886b;stroke-width:3.3;stroke-opacity:1"
       d="m 477.41103,257.06748 2.21081,-1.1054 5.15854,4.42161 5.03572,-0.24565 5.89548,-4.29879 3.43903,3.19339 5.77266,-5.40419 2.45645,1.1054 -3.19338,2.21081 -1.10541,3.80749 1.22823,0.36847 -4.05314,3.43903 2.2108,3.43903 -2.08798,2.45645 6.63241,1.59669 21.37112,-0.61411 1.47387,1.47387 -5.89548,5.15855 -0.73694,6.38677 6.63242,1.47386 7.86064,-7.36934 7.1237,-0.73694 -5.89548,1.96516 3.68468,8.84322 -5.89548,-1.22823 -4.9129,7.36935 -12.28225,4.17597 -2.94774,1.96516 -3.19339,-0.24565 -3.68467,-1.22822 -4.42161,1.96516 1.71951,1.71951 -1.47387,1.47387 3.68468,7.615 -4.17597,6.63241 h -7.36935 l -13.01918,-8.35193 -12.28225,4.42161 -12.0366,-21.12547 7.00088,0.24565 -0.30706,-1.6581 2.45645,2.33362 h 3.37762 l 2.51786,-4.23737 -1.28963,-3.86891 3.62326,-2.88633 -6.26395,-7.98346 -7.43076,-13.01919 1.41246,-3.13197 8.35193,6.571 5.83407,-3.13197 z"
       id="path6759" /><path
       style="fill:#efd3d1;fill-opacity:1;stroke:#efd3d1;stroke-width:3.3;stroke-opacity:1"
       d="m 407.27939,231.39758 11.29967,21.61676 18.17773,12.77354 10.31709,2.45645 0.49129,6.87806 -4.42161,2.45645 0.98258,2.94774 h 2.94774 l 3.43903,-3.43903 11.29967,15.22998 h 3.43903 l -1.47387,-5.89548 6.38677,6.87806 h 1.96515 l 1.47387,-2.94774 -1.47387,-4.42161 3.43903,-2.45645 -5.40418,-6.87805 -5.40419,-8.84322 -2.45645,-4.9129 2.94774,-5.89548 8.84321,7.36935 3.43903,-1.96516 -1.47387,-4.42161 -5.89547,-5.89548 -7.86064,0.49129 -15.22999,-5.89548 -6.87806,-4.9129 -1.96516,-2.45645 -5.40419,-14.7387 -11.29967,6.38677 z"
       id="path5394" /><path
       style="fill:#efd3d1;fill-opacity:1;stroke:#efd3d1;stroke-width:3.3;stroke-opacity:1"
       d="m 551.22735,224.02823 28.00353,20.14289 -22.59934,12.77354 -13.26483,1.96516 -7.36935,-10.31709 -21.61676,3.93032 -8.84322,5.40419 -0.49129,1.47387 2.94774,0.49129 -5.40419,4.9129 1.47387,1.96516 4.9129,-1.47387 -5.40419,3.93032 4.42161,1.47387 21.61676,-0.98258 2.45645,2.94774 -6.87806,6.38677 v 4.91289 h 3.43903 l 8.35193,-7.36934 h 6.38677 l 3.93032,-0.49129 27.02095,-1.47387 19.16031,-4.9129 16.70386,-5.89548 6.38677,-4.42161 v -5.40419 l -1.96516,-8.35193 -6.38677,-7.36935 -7.86064,-12.28225 -11.79096,-7.36935 -13.75612,-13.26483 -8.84322,-7.86064 -0.49129,15.22999 -7.86064,8.35193 z"
       id="path6593" /><path
       style="fill:#e51a4c;fill-opacity:1;stroke:#e51a4c;stroke-width:3.29953;stroke-linejoin:round;stroke-dasharray:none;stroke-opacity:1"
       d="m 480.72724,256.94466 -1.47387,3.19338 6.14112,5.40419 3.19339,-0.49129 4.9129,-3.93032 -2.45645,-2.94774 -3.68468,2.45645 -4.42161,-0.24564 z"
       id="path8513" /><path
       style="fill:#000000;fill-opacity:1;stroke:#000000;stroke-width:3.29953;stroke-linejoin:round;stroke-dasharray:none;stroke-opacity:1"
       d="m 471.7612,316.88203 2.70209,3.07057 -1.47387,2.57927 2.7021,1.71951 -2.33363,3.43903 0.49129,3.19339 2.82492,0.73693 0.36847,2.82492 2.70209,0.24565 4.79008,3.68467 19.40595,2.70209 21.24829,-6.14112 8.96604,-3.43903 6.14113,-2.08798 7.00088,-9.8258 -0.12282,-14.37023 3.19338,-6.38677 -1.47387,-5.40419 -3.93032,-14.12459 -3.80749,1.47387 3.93032,9.8258 -8.10629,-1.71952 -4.42161,7.12371 -12.40507,4.29879 -3.07056,1.84233 -4.19819,0.0899 -3.12655,-1.17246 -1.69354,1.04219 1.0856,1.04218 -1.56327,1.69355 3.30025,7.46898 -5.03722,8.2072 -8.81514,-0.13028 -12.72332,-8.29404 z"
       id="path12839" /><path
       style="fill:#e51a4c;fill-opacity:1;stroke:#e51a4c;stroke-width:3.29953;stroke-linejoin:round;stroke-dasharray:none;stroke-opacity:1"
       d="m 461.86095,201.83619 -0.1737,12.3325 3.30025,7.12159 19.97518,14.06948 5.03722,2.95285 3.64765,-2.25807 -1.04219,-3.99503 16.67494,-16.50124 1.21588,-3.64764 -0.1737,-20.66997 -8.51116,8.51116 -7.12159,0.86849 -8.68486,4.86352 -11.46402,0.1737 z"
       id="path14509" /><path
       style="fill:#000000;fill-opacity:1;stroke:#000000;stroke-width:3.29953;stroke-linejoin:round;stroke-dasharray:none;stroke-opacity:1"
       d="m 463.59792,221.98507 -0.17369,17.02233 -3.64765,-5.90571 -1.38957,5.90571 -5.55832,4.16873 -1.38957,-1.56327 -3.12655,2.95285 -2.60546,-1.91067 1.21588,-4.51613 -5.38462,-22.05955 -0.86848,-20.84367 -4.51613,-25.35979 4.34243,-21.88585 10.42184,-16.32754 9.03225,-4.16874 6.94789,1.73697 2.95285,-2.25806 7.29529,5.21092 4.16873,3.82134 2.08437,2.95285 7.12158,5.9057 10.07444,5.38462 6.94789,7.12159 4.16874,15.11166 0.34739,17.89081 -1.73697,-1.21588 -9.03226,9.20595 -7.12158,0.69479 -8.68486,5.03722 -11.63772,0.1737 -11.98511,-4.16873 -2.08437,14.06947 z"
       id="path15816" /><path
       style="fill:#06a8ee;fill-opacity:1;stroke:#06a8ee;stroke-width:3.29953;stroke-linejoin:round;stroke-dasharray:none;stroke-opacity:1"
       d="m 405.55987,229.43242 -2.94774,-11.54532 -4.17596,-5.89548 1.71951,-8.10628 -2.94774,-20.38853 11.05403,-11.54532 6.38677,-12.0366 23.82756,-12.5279 -4.17596,23.58192 4.66725,25.54708 0.73694,18.66902 5.64983,22.35369 -0.73693,4.9129 -5.40419,-3.93032 -5.40419,-15.96692 -13.26483,6.14112 z"
       id="path18119" /><path
       style="fill:#06a8ee;fill-opacity:1;stroke:#06a8ee;stroke-width:3.29953;stroke-linejoin:round;stroke-dasharray:none;stroke-opacity:1"
       d="m 490.52099,142.08434 39.25558,12.85359 7.99007,10.42184 3.82134,8.33747 22.23325,20.49627 v 18.7593 l -6.2531,6.2531 -10.42184,3.82134 -12.1588,-6.2531 h -2.77916 l -7.64268,19.45409 -9.72704,9.03226 -0.95534,5.9057 -4.86352,2.69231 -4.25558,-2.25806 -5.81886,5.12407 -3.2134,-3.03971 -3.90819,3.03971 -0.95533,-0.26055 -3.2134,2.17121 h -2.43176 l -5.47146,-4.68982 -3.12655,1.73697 -5.90571,-5.21092 -8.33747,0.3474 -13.02729,-5.21092 1.82382,-1.56327 1.99752,1.04218 6.60049,-5.29777 0.60794,-2.866 2.25807,3.82134 1.56327,-0.52109 0.95534,-0.69479 0.0868,-16.24069 24.75185,16.76178 5.21092,-3.47394 -0.86849,-3.99504 16.32754,-15.98015 1.21589,-4.95037 -0.26055,-19.88833 1.30273,0.26054 0.78164,-1.30272 -0.26055,-18.58561 -4.60298,-15.80645 -7.29528,-7.29528 z"
       id="path19369" /><path
       style="fill:#06a8ee;fill-opacity:1;stroke:#06a8ee;stroke-width:3.29953;stroke-linejoin:round;stroke-dasharray:none;stroke-opacity:1"
       d="m 444.86307,269.22691 -8.59757,-2.94774 -32.42514,-11.79096 -26.7753,-3.43903 -20.87983,-4.17597 -51.09416,4.42161 -7.61499,11.29967 -0.49129,41.514 3.93032,28.49482 30.21433,-3.93032 3.93032,12.03661 -1.22822,20.63418 84.50187,-10.31709 11.79096,-2.94774 18.66902,-10.80838 8.10629,-4.17597 4.66725,-4.42161 10.36846,-0.21152 v -1.21588 l 1.56328,-2.60546 -2.25807,-1.91067 1.47643,-2.43176 -2.69231,-3.56079 0.86849,-1.30273 -13.11414,-23.01488 h 1.82382 l -9.37965,-12.94045 -2.25807,2.51861 -5.21091,0.1737 -1.47643,-5.21092 5.12407,-3.0397 z"
       id="path19371" /><path
       style="fill:#f46b6b;fill-opacity:1;stroke:#000000;stroke-width:1.78772;stroke-linejoin:round;stroke-dasharray:none;stroke-opacity:1"
       d="m 330.14686,330.39251 93.83639,-10.07145"
       id="path20363" /><path
       style="fill:none;fill-opacity:1;stroke:#000000;stroke-width:0.27590551;stroke-linejoin:round;stroke-dasharray:none;stroke-opacity:1"
       d="m 405.62963,231.19595 11.79096,22.84498 10.31709,7.36935"
       id="path29425" /><path
       style="fill:none;fill-opacity:1;stroke:#000000;stroke-width:0.275906;stroke-linejoin:round;stroke-dasharray:none;stroke-opacity:1"
       d="m 515.66997,250.55867 20.93052,-3.77792 7.46898,10.33499 11.94169,-1.7804 20.10545,-11.33374 -27.35731,-19.75806"
       id="path29427" /><path
       style="fill:none;fill-opacity:1;stroke:#000000;stroke-width:0.275906;stroke-linejoin:round;stroke-dasharray:none;stroke-opacity:1"
       d="m 545.89329,277.87256 28.7469,-1.6067 19.30703,-4.96837 16.99556,-6.01062 7.30794,-5.0434 -0.0307,-6.571 -2.10333,-8.81252 -6.60171,-7.61499 -8.10629,-12.5586 -11.91378,-7.49218 -23.95038,-22.35369"
       id="path29429" /></g></svg>
